<?xml version="1.0" standalone="no"?>
<!DOCTYPE svg PUBLIC "-//W3C//DTD SVG 20010904//EN"
 "http://www.w3.org/TR/2001/REC-SVG-20010904/DTD/svg10.dtd">
<svg version="1.0" xmlns="http://www.w3.org/2000/svg"
 width="500.000000pt" height="500.000000pt" viewBox="0 0 500.000000 500.000000"
 preserveAspectRatio="xMidYMid meet">
<metadata>
Created by potrace 1.11, written by Peter Selinger 2001-2013
</metadata>
<g transform="translate(0.000000,500.000000) scale(0.100000,-0.100000)"
fill="#000000" stroke="none">
<path d="M2330 4084 c-177 -29 -232 -42 -335 -76 -237 -79 -445 -208 -625
-388 -236 -237 -381 -512 -445 -850 -19 -100 -18 -426 1 -535 104 -587 509
-1057 1074 -1246 173 -58 309 -77 515 -74 183 3 208 6 330 35 371 87 704 305
924 604 81 110 97 135 154 251 74 149 133 346 152 505 7 61 7 295 0 350 -2 19
-7 55 -10 80 -3 25 -14 81 -25 125 -107 456 -423 853 -843 1059 -110 54 -259
109 -326 121 -19 3 -37 7 -40 9 -7 4 -58 13 -139 25 -56 8 -320 12 -362 5z
m425 -43 c22 -5 51 -12 65 -14 205 -37 495 -178 670 -326 263 -222 457 -540
524 -857 30 -143 39 -224 39 -359 -2 -763 -578 -1422 -1339 -1529 -184 -26
-438 -13 -614 32 -253 65 -515 216 -711 412 -367 366 -528 904 -424 1417 38
182 123 386 227 542 161 240 355 410 618 542 145 72 292 117 500 152 48 8 405
-1 445 -12z"/>
<path d="M2203 3485 l-1 -65 59 0 c46 0 59 3 59 15 0 10 -11 15 -35 15 -19 0
-35 5 -35 10 0 6 13 10 28 10 19 0 29 5 29 15 0 10 -10 15 -29 15 -15 0 -28 5
-28 11 0 6 14 9 33 7 23 -2 32 1 32 12 0 11 -14 16 -55 18 l-56 3 -1 -66z"/>
<path d="M2405 3538 c-2 -7 -13 -37 -24 -65 l-19 -53 24 0 c13 0 24 5 24 10 0
6 11 10 25 10 14 0 25 -4 25 -10 0 -5 11 -10 24 -10 l24 0 -22 63 c-19 53 -27
62 -49 65 -16 2 -29 -2 -32 -10z m38 -48 c3 -12 0 -20 -8 -20 -8 0 -11 8 -8
20 3 11 7 20 8 20 1 0 5 -9 8 -20z"/>
<path d="M2570 3535 c-23 -28 -7 -52 45 -70 12 -4 15 -9 8 -12 -7 -2 -20 0
-30 5 -28 14 -45 4 -33 -19 15 -28 95 -27 110 1 13 25 -3 60 -28 60 -9 0 -24
5 -32 11 -11 7 -5 8 23 3 29 -5 37 -3 37 9 0 29 -78 38 -100 12z"/>
<path d="M2720 3543 c0 -12 16 -35 24 -34 20 3 23 -2 21 -31 -2 -45 4 -58 26
-58 16 0 19 8 19 50 0 28 3 49 8 49 20 -3 32 2 32 16 0 12 -14 15 -65 15 -36
0 -65 -3 -65 -7z"/>
<path d="M1589 3396 c0 -1 -2 -36 -4 -78 -3 -64 -1 -78 11 -78 8 0 14 6 13 13
-1 6 -1 32 0 57 l1 44 430 -429 c236 -237 430 -433 430 -436 0 -4 -132 -139
-294 -300 l-295 -294 -67 0 c-45 0 -69 -4 -71 -12 -4 -10 11 -13 53 -13 l58 0
-34 -35 c-31 -32 -38 -34 -104 -37 -78 -3 -91 -22 -16 -24 25 -1 49 -2 53 -3
4 0 -9 -16 -29 -35 -36 -33 -42 -35 -103 -33 -44 1 -66 -2 -68 -10 -3 -10 11
-13 51 -13 31 0 56 -2 56 -5 0 -3 -9 -14 -20 -25 -21 -21 -26 -40 -12 -40 5 0
17 9 27 20 26 28 31 25 32 -17 1 -63 3 -73 13 -73 6 0 10 31 10 73 0 70 1 74
35 107 l35 34 0 -57 c0 -40 4 -57 13 -57 9 0 12 19 12 68 -2 62 1 70 29 100
38 40 48 40 46 0 -3 -56 0 -78 10 -78 6 0 10 31 10 73 l0 72 298 297 297 298
292 -293 292 -292 3 -70 c2 -39 8 -72 13 -73 9 -2 12 14 14 88 1 24 1 24 36
-10 33 -33 35 -39 36 -107 1 -40 5 -73 10 -73 5 0 9 8 10 18 1 9 2 32 2 49 2
40 9 41 45 8 26 -23 28 -31 27 -90 -2 -107 21 -115 27 -10 l3 50 26 -29 c17
-18 29 -24 33 -17 4 6 2 11 -5 11 -7 0 -10 3 -6 6 3 4 -4 15 -16 25 -25 21
-27 20 55 23 21 0 38 6 38 11 0 11 -9 12 -87 14 -40 1 -58 7 -82 27 -17 14
-31 30 -31 34 0 5 22 8 50 7 48 -1 70 6 57 19 -3 4 -35 6 -70 5 -60 -1 -67 1
-103 34 l-38 35 63 0 c46 0 62 3 59 13 -3 8 -29 13 -76 14 l-72 2 -290 290
c-160 159 -290 293 -290 298 0 4 193 201 428 436 l428 428 1 -45 c2 -72 2 -76
13 -76 7 0 10 30 8 83 l-3 82 -74 0 c-49 0 -76 -4 -78 -12 -3 -8 14 -13 53
-15 l57 -3 -428 -427 c-236 -236 -430 -428 -432 -428 -2 0 -198 194 -434 430
l-430 430 55 0 c54 0 82 14 49 24 -14 4 -140 6 -144 2z"/>
<path d="M2066 3238 c-10 -29 -21 -59 -23 -65 -5 -14 28 -18 41 -6 11 11 45
13 51 3 9 -15 48 -12 43 3 -3 6 -13 36 -22 65 -15 46 -21 52 -44 52 -24 0 -30
-7 -46 -52z m50 -25 c-10 -10 -19 5 -10 18 6 11 8 11 12 0 2 -7 1 -15 -2 -18z"/>
<path d="M2234 3225 c-1 -62 0 -65 23 -65 12 0 22 3 22 8 -4 27 3 39 23 38 15
-1 24 6 26 18 3 15 -1 18 -22 14 -18 -4 -26 -1 -26 9 0 8 8 13 18 12 32 -3 42
1 42 16 0 11 -13 15 -53 15 l-53 0 0 -65z"/>
<path d="M2397 3258 c1 -18 2 -48 2 -65 1 -26 5 -33 21 -33 15 0 20 7 20 26 0
22 2 25 15 14 8 -7 15 -19 15 -26 0 -8 11 -14 26 -14 17 0 24 4 21 13 -3 6 -8
20 -12 30 -4 10 -3 17 4 17 15 0 14 43 -1 58 -7 7 -35 12 -62 12 l-51 0 2 -32z
m77 -7 c3 -4 3 -11 0 -14 -8 -8 -34 3 -34 14 0 11 27 12 34 0z"/>
<path d="M2580 3225 c0 -61 1 -65 23 -65 20 0 22 4 23 65 0 61 -1 65 -23 65
-22 0 -23 -4 -23 -65z"/>
<path d="M2705 3276 c-25 -18 -25 -84 1 -103 27 -20 84 -13 101 13 12 19 12
22 -1 27 -9 4 -22 -1 -31 -9 -21 -22 -45 -10 -45 21 0 29 27 45 40 25 10 -15
38 -22 45 -11 2 4 -3 17 -11 29 -18 26 -70 30 -99 8z"/>
<path d="M2905 3278 c-2 -7 -13 -37 -24 -65 l-19 -53 24 0 c13 0 24 5 24 10 0
6 9 10 19 10 11 0 23 -4 26 -10 3 -5 17 -10 30 -10 l24 0 -23 63 c-20 52 -28
63 -50 65 -15 2 -28 -2 -31 -10z m39 -53 c3 -9 0 -15 -9 -15 -9 0 -12 6 -9 15
4 8 7 15 9 15 2 0 5 -7 9 -15z"/>
<path d="M3006 2374 c-21 -15 -24 -57 -6 -79 15 -18 61 -20 78 -3 18 18 15 28
-8 28 -11 0 -20 -4 -20 -10 0 -5 -7 -7 -15 -4 -8 4 -15 14 -15 24 0 22 22 39
28 22 4 -14 42 -16 42 -3 0 28 -57 45 -84 25z"/>
<path d="M3133 2380 c-27 -11 -39 -51 -23 -79 12 -24 68 -29 88 -9 20 20 14
65 -10 82 -25 18 -25 18 -55 6z m41 -35 c6 -18 -2 -45 -15 -45 -16 0 -29 36
-17 48 16 16 25 15 32 -3z"/>
<path d="M3237 2384 c-12 -12 -8 -79 5 -92 7 -7 27 -12 45 -12 26 0 34 5 38
23 12 55 9 77 -10 77 -10 0 -15 -10 -15 -34 0 -32 -14 -55 -26 -43 -3 3 -6 19
-8 36 -2 33 -18 56 -29 45z"/>
<path d="M3368 2382 c-14 -3 -18 -14 -18 -53 0 -42 3 -49 20 -49 14 0 20 7 21
23 l0 22 11 -22 c6 -13 18 -23 28 -23 13 0 16 10 15 47 0 44 -2 48 -30 53 -16
3 -38 4 -47 2z m47 -32 c3 -5 -1 -10 -9 -10 -9 0 -16 5 -16 10 0 6 4 10 9 10
6 0 13 -4 16 -10z"/>
<path d="M3480 2373 c-16 -11 -18 -18 -10 -33 7 -13 7 -21 0 -25 -17 -10 9
-35 35 -35 62 0 76 41 23 64 l-33 15 33 -6 c26 -5 31 -3 27 10 -9 21 -51 27
-75 10z m35 -63 c3 -5 2 -10 -4 -10 -5 0 -13 5 -16 10 -3 6 -2 10 4 10 5 0 13
-4 16 -10z"/>
<path d="M3600 2380 c-22 -5 -25 -11 -25 -50 l0 -45 43 0 c23 0 42 5 42 10 0
6 -9 10 -19 10 -11 0 -23 3 -27 8 -4 4 5 7 19 7 25 0 39 18 17 21 -5 1 -14 2
-19 3 -19 2 -25 18 -6 16 33 -4 47 -1 41 9 -8 13 -38 18 -66 11z"/>
<path d="M3703 2379 c-23 -8 -33 -49 -13 -49 6 0 10 -5 10 -11 0 -5 -5 -7 -12
-3 -8 5 -9 2 -5 -10 4 -10 7 -20 7 -22 0 -2 15 -4 34 -4 60 0 66 37 11 69 -17
10 -16 10 9 5 21 -5 27 -3 24 6 -6 19 -40 29 -65 19z m32 -77 c-3 -3 -11 0
-18 7 -9 10 -8 11 6 5 10 -3 15 -9 12 -12z"/>
<path d="M1207 2362 c-22 -25 -21 -75 1 -95 28 -25 87 -22 106 5 22 31 20 64
-4 88 -26 26 -81 26 -103 2z m71 -28 c13 -24 3 -54 -18 -54 -21 0 -33 25 -25
51 8 23 31 25 43 3z"/>
<path d="M1350 2315 c0 -58 2 -65 20 -65 15 0 20 7 20 27 l0 27 28 -27 c48
-46 62 -37 62 38 0 58 -2 65 -20 65 -20 0 -24 -8 -21 -45 1 -16 -3 -14 -26 13
-15 18 -36 32 -45 32 -15 0 -18 -10 -18 -65z"/>
<path d="M1507 2373 c-3 -7 -2 -95 2 -115 0 -5 26 -8 56 -8 39 0 54 4 53 13
-4 19 -19 26 -45 21 -22 -4 -23 -1 -23 46 0 43 -3 50 -19 50 -11 0 -22 -3 -24
-7z"/>
<path d="M1631 2316 c-2 -63 -1 -66 22 -66 22 0 23 3 23 63 -1 55 -3 62 -22
65 -19 3 -21 -2 -23 -62z"/>
<path d="M1701 2315 c-2 -59 0 -65 19 -65 19 0 24 10 21 38 -3 19 9 14 31 -14
13 -15 28 -24 41 -22 18 3 21 10 21 63 0 53 -2 60 -19 60 -11 0 -21 -6 -21
-12 -1 -7 -2 -19 -3 -25 0 -7 -12 0 -26 15 -14 15 -34 27 -44 27 -15 0 -18
-10 -20 -65z"/>
<path d="M1860 2315 l0 -65 61 0 c44 0 60 3 57 13 -3 6 -21 13 -41 15 -43 4
-40 22 3 22 22 0 28 4 24 15 -4 9 -19 15 -36 15 -17 0 -27 4 -23 10 3 6 21 10
39 10 22 0 33 5 33 15 0 12 -13 15 -59 15 l-58 0 0 -65z"/>
<path d="M2066 1373 c-9 -22 2 -33 30 -33 23 0 24 -3 24 -60 0 -59 0 -60 28
-60 27 0 28 1 27 60 -1 59 0 60 27 60 23 0 28 4 28 24 0 23 -2 23 -79 23 -61
0 -81 -3 -85 -14z"/>
<path d="M2300 1304 l0 -84 76 0 c66 0 75 2 72 18 -2 11 -14 18 -38 20 -19 1
-42 5 -50 8 -24 8 7 22 41 18 24 -3 29 0 29 19 0 19 -5 22 -35 22 -19 0 -35 4
-35 10 0 5 15 10 34 10 36 0 49 7 52 29 1 10 -17 13 -72 13 l-74 1 0 -84z"/>
<path d="M2552 1378 c-19 -10 -34 -38 -37 -73 -2 -24 19 -66 37 -76 51 -27
128 -1 128 43 0 22 -45 25 -54 3 -9 -26 -45 -18 -52 12 -12 47 23 78 52 45 17
-20 54 -19 54 2 -1 44 -74 69 -128 44z"/>
<path d="M2760 1305 l0 -85 29 0 c24 0 28 4 27 28 -1 22 4 28 27 30 24 3 27 0
27 -27 0 -28 3 -31 29 -31 l29 0 -1 83 c-2 82 -2 82 -29 85 -26 3 -28 1 -28
-31 0 -29 -3 -33 -22 -31 -13 1 -27 3 -32 3 -4 1 -6 8 -2 16 9 25 -4 45 -30
45 -23 0 -24 -2 -24 -85z"/>
</g>
</svg>
